<svg width="180" height="56" viewBox="0 0 180 56" fill="none" xmlns="http://www.w3.org/2000/svg">
<rect width="180" height="56" rx="8" fill="url(#paint0_linear_3_26)"/>
<rect x="1.05" y="1.05" width="177.9" height="53.9" rx="6.95" stroke="white" stroke-opacity="0.15" stroke-width="2.1"/>
<g filter="url(#filter0_d_3_26)">
<path d="M14.256 45.4939L16.8774 36.1582C15.2579 33.4195 14.4073 30.3128 14.4112 27.1512C14.4154 17.2173 22.7034 9.13574 32.888 9.13574C37.8302 9.13819 42.4692 11.0142 45.9579 14.4196C49.4467 17.825 51.3663 22.3516 51.3645 27.1657C51.36 37.0988 43.0708 45.1818 32.8877 45.1818H32.8797C29.7877 45.1806 26.7494 44.424 24.0506 42.9886L14.256 45.4939Z" fill="white"/>
<path d="M32.8935 12.1791C24.4225 12.1791 17.5335 18.8962 17.5305 27.1524C17.5264 29.9717 18.3403 32.7346 19.8782 35.1216L20.2436 35.6882L18.692 41.2135L24.5043 39.727L25.0656 40.0513C27.4228 41.4159 30.1256 42.1375 32.8819 42.1389H32.8877C41.3521 42.1389 48.2411 35.4212 48.2443 27.1644C48.2507 25.1965 47.8569 23.2468 47.0855 21.4283C46.3141 19.6099 45.1806 17.9587 43.7506 16.5705C42.3285 15.1746 40.6366 14.0678 38.773 13.314C36.9094 12.5602 34.911 12.1745 32.8935 12.1791Z" fill="url(#paint1_linear_3_26)"/>
<path fill-rule="evenodd" clip-rule="evenodd" d="M28.2699 19.6195C27.9239 18.8697 27.5597 18.8545 27.231 18.8416L26.3461 18.831C26.0382 18.831 25.538 18.9437 25.1151 19.3944C24.6922 19.8451 23.4991 20.9343 23.4991 23.1498C23.4991 25.3653 25.1535 27.5061 25.384 27.8069C25.6146 28.1077 28.5778 32.7991 33.2704 34.604C37.17 36.1041 37.9636 35.8057 38.8103 35.7308C39.6571 35.6558 41.5418 34.6415 41.9262 33.59C42.3107 32.5384 42.3109 31.6376 42.1957 31.4492C42.0804 31.2608 41.7725 31.1489 41.3105 30.9235C40.8484 30.6982 38.5791 29.6089 38.1559 29.4586C37.7328 29.3082 37.4252 29.2335 37.1171 29.6841C36.8089 30.1348 35.9252 31.1486 35.6558 31.4492C35.3863 31.7497 35.1174 31.7875 34.6553 31.5624C34.1933 31.3373 32.7067 30.8616 30.9428 29.3275C29.5704 28.1339 28.6441 26.6598 28.3744 26.2094C28.1047 25.759 28.3457 25.515 28.5773 25.2906C28.7844 25.0888 29.0388 24.7647 29.2701 24.5019C29.5014 24.2391 29.5775 24.0512 29.7312 23.7512C29.8848 23.4511 29.8083 23.1876 29.6927 22.9625C29.5772 22.7374 28.6802 20.5101 28.2699 19.6195Z" fill="white"/>
</g>
<g filter="url(#filter1_d_3_26)">
<path d="M70.9432 16.6477H69.1705C69.1023 16.2689 68.9754 15.9356 68.7898 15.6477C68.6042 15.3598 68.3769 15.1155 68.108 14.9148C67.839 14.714 67.5379 14.5625 67.2045 14.4602C66.875 14.358 66.5246 14.3068 66.1534 14.3068C65.483 14.3068 64.8826 14.4754 64.3523 14.8125C63.8258 15.1496 63.4091 15.6439 63.1023 16.2955C62.7992 16.947 62.6477 17.7424 62.6477 18.6818C62.6477 19.6288 62.7992 20.428 63.1023 21.0795C63.4091 21.7311 63.8277 22.2235 64.358 22.5568C64.8883 22.8901 65.4848 23.0568 66.1477 23.0568C66.5151 23.0568 66.8636 23.0076 67.1932 22.9091C67.5265 22.8068 67.8276 22.6572 68.0966 22.4602C68.3655 22.2633 68.5928 22.0227 68.7784 21.7386C68.9678 21.4508 69.0985 21.1212 69.1705 20.75L70.9432 20.7557C70.8485 21.3276 70.6648 21.8542 70.392 22.3352C70.1231 22.8125 69.7765 23.2254 69.3523 23.5739C68.9318 23.9186 68.4508 24.1856 67.9091 24.375C67.3674 24.5644 66.7765 24.6591 66.1364 24.6591C65.1288 24.6591 64.2311 24.4205 63.4432 23.9432C62.6553 23.4621 62.0341 22.7746 61.5795 21.8807C61.1288 20.9867 60.9034 19.9205 60.9034 18.6818C60.9034 17.4394 61.1307 16.3731 61.5852 15.483C62.0398 14.589 62.661 13.9034 63.4489 13.4261C64.2367 12.9451 65.1326 12.7045 66.1364 12.7045C66.7538 12.7045 67.3295 12.7936 67.8636 12.9716C68.4015 13.1458 68.8845 13.4034 69.3125 13.7443C69.7405 14.0814 70.0947 14.4943 70.375 14.983C70.6553 15.4678 70.8447 16.0227 70.9432 16.6477ZM74.6065 19.3182V24.5H72.9077V12.8636H74.5838V17.1932H74.6918C74.8963 16.7235 75.2088 16.3504 75.6293 16.0739C76.0497 15.7973 76.599 15.6591 77.277 15.6591C77.8755 15.6591 78.3982 15.7822 78.8452 16.0284C79.2959 16.2746 79.6444 16.642 79.8906 17.1307C80.1406 17.6155 80.2656 18.2216 80.2656 18.9489V24.5H78.5668V19.1534C78.5668 18.5133 78.402 18.017 78.0724 17.6648C77.7429 17.3087 77.2846 17.1307 76.6974 17.1307C76.2959 17.1307 75.9361 17.2159 75.6179 17.3864C75.3035 17.5568 75.0554 17.8068 74.8736 18.1364C74.6955 18.4621 74.6065 18.8561 74.6065 19.3182ZM86.294 24.6761C85.4342 24.6761 84.6936 24.4924 84.0724 24.125C83.455 23.7538 82.9777 23.233 82.6406 22.5625C82.3073 21.8883 82.1406 21.0985 82.1406 20.1932C82.1406 19.2992 82.3073 18.5114 82.6406 17.8295C82.9777 17.1477 83.4474 16.6155 84.0497 16.233C84.6558 15.8504 85.3641 15.6591 86.1747 15.6591C86.6671 15.6591 87.1444 15.7405 87.6065 15.9034C88.0686 16.0663 88.4834 16.322 88.8508 16.6705C89.2183 17.0189 89.508 17.4716 89.7202 18.0284C89.9323 18.5814 90.0383 19.2538 90.0383 20.0455V20.6477H83.1008V19.375H88.3736C88.3736 18.928 88.2827 18.5322 88.1008 18.1875C87.919 17.839 87.6633 17.5644 87.3338 17.3636C87.008 17.1629 86.6255 17.0625 86.1861 17.0625C85.7088 17.0625 85.2921 17.1799 84.9361 17.4148C84.5838 17.6458 84.3111 17.9489 84.1179 18.3239C83.9285 18.6951 83.8338 19.0985 83.8338 19.5341V20.5284C83.8338 21.1117 83.9361 21.608 84.1406 22.017C84.349 22.4261 84.6387 22.7386 85.0099 22.9545C85.3811 23.1667 85.8149 23.2727 86.3111 23.2727C86.633 23.2727 86.9266 23.2273 87.1918 23.1364C87.4569 23.0417 87.6861 22.9015 87.8793 22.7159C88.0724 22.5303 88.2202 22.3011 88.3224 22.0284L89.9304 22.3182C89.8016 22.7917 89.5705 23.2064 89.2372 23.5625C88.9077 23.9148 88.4929 24.1894 87.9929 24.3864C87.4967 24.5795 86.9304 24.6761 86.294 24.6761ZM95.5994 24.6761C94.7547 24.6761 94.0275 24.4848 93.4176 24.1023C92.8115 23.7159 92.3456 23.1837 92.0199 22.5057C91.6941 21.8276 91.5312 21.0511 91.5312 20.1761C91.5312 19.2898 91.6979 18.5076 92.0312 17.8295C92.3646 17.1477 92.8343 16.6155 93.4403 16.233C94.0464 15.8504 94.7604 15.6591 95.5824 15.6591C96.2453 15.6591 96.8362 15.7822 97.3551 16.0284C97.874 16.2708 98.2926 16.6117 98.6108 17.0511C98.9328 17.4905 99.124 18.0038 99.1846 18.5909H97.5312C97.4403 18.1818 97.232 17.8295 96.9062 17.5341C96.5843 17.2386 96.1525 17.0909 95.6108 17.0909C95.1373 17.0909 94.7225 17.2159 94.3665 17.4659C94.0142 17.7121 93.7396 18.0644 93.5426 18.5227C93.3456 18.9773 93.2471 19.5151 93.2471 20.1364C93.2471 20.7727 93.3437 21.322 93.5369 21.7841C93.7301 22.2462 94.0028 22.6042 94.3551 22.858C94.7112 23.1117 95.1297 23.2386 95.6108 23.2386C95.9328 23.2386 96.2244 23.1799 96.4858 23.0625C96.7509 22.9413 96.9725 22.7689 97.1506 22.5455C97.3324 22.322 97.4593 22.053 97.5312 21.7386H99.1846C99.124 22.303 98.9403 22.8068 98.6335 23.25C98.3267 23.6932 97.9157 24.0417 97.4006 24.2955C96.8892 24.5492 96.2888 24.6761 95.5994 24.6761ZM102.564 21.5398L102.553 19.4659H102.848L106.325 15.7727H108.359L104.393 19.9773H104.126L102.564 21.5398ZM101.001 24.5V12.8636H102.7V24.5H101.001ZM106.513 24.5L103.388 20.3523L104.558 19.1648L108.598 24.5H106.513ZM117.818 24.6761C117 24.6761 116.286 24.4886 115.676 24.1136C115.066 23.7386 114.593 23.214 114.256 22.5398C113.919 21.8655 113.75 21.0776 113.75 20.1761C113.75 19.2708 113.919 18.4792 114.256 17.8011C114.593 17.1231 115.066 16.5966 115.676 16.2216C116.286 15.8466 117 15.6591 117.818 15.6591C118.636 15.6591 119.35 15.8466 119.96 16.2216C120.57 16.5966 121.044 17.1231 121.381 17.8011C121.718 18.4792 121.886 19.2708 121.886 20.1761C121.886 21.0776 121.718 21.8655 121.381 22.5398C121.044 23.214 120.57 23.7386 119.96 24.1136C119.35 24.4886 118.636 24.6761 117.818 24.6761ZM117.824 23.25C118.354 23.25 118.794 23.1098 119.142 22.8295C119.491 22.5492 119.748 22.1761 119.915 21.7102C120.085 21.2443 120.17 20.7311 120.17 20.1705C120.17 19.6136 120.085 19.1023 119.915 18.6364C119.748 18.1667 119.491 17.7898 119.142 17.5057C118.794 17.2216 118.354 17.0795 117.824 17.0795C117.29 17.0795 116.847 17.2216 116.494 17.5057C116.146 17.7898 115.886 18.1667 115.716 18.6364C115.549 19.1023 115.466 19.6136 115.466 20.1705C115.466 20.7311 115.549 21.2443 115.716 21.7102C115.886 22.1761 116.146 22.5492 116.494 22.8295C116.847 23.1098 117.29 23.25 117.824 23.25ZM129.311 20.8807V15.7727H131.016V24.5H129.345V22.9886H129.254C129.053 23.4545 128.732 23.8428 128.288 24.1534C127.849 24.4602 127.302 24.6136 126.646 24.6136C126.086 24.6136 125.589 24.4905 125.158 24.2443C124.73 23.9943 124.392 23.625 124.146 23.1364C123.904 22.6477 123.783 22.0436 123.783 21.3239V15.7727H125.482V21.1193C125.482 21.714 125.646 22.1875 125.976 22.5398C126.305 22.892 126.733 23.0682 127.26 23.0682C127.578 23.0682 127.894 22.9886 128.209 22.8295C128.527 22.6705 128.79 22.4299 128.999 22.108C129.211 21.786 129.315 21.3769 129.311 20.8807ZM137.372 15.7727V17.1364H132.605V15.7727H137.372ZM133.884 13.6818H135.582V21.9375C135.582 22.267 135.632 22.5151 135.73 22.6818C135.829 22.8447 135.955 22.9564 136.111 23.017C136.27 23.0739 136.442 23.1023 136.628 23.1023C136.764 23.1023 136.883 23.0928 136.986 23.0739C137.088 23.0549 137.168 23.0398 137.224 23.0284L137.531 24.4318C137.433 24.4697 137.293 24.5076 137.111 24.5455C136.929 24.5871 136.702 24.6098 136.429 24.6136C135.982 24.6212 135.565 24.5417 135.179 24.375C134.793 24.2083 134.48 23.9508 134.241 23.6023C134.003 23.2538 133.884 22.8163 133.884 22.2898V13.6818ZM147.56 15.7727V17.1364H142.793V15.7727H147.56ZM144.071 13.6818H145.77V21.9375C145.77 22.267 145.819 22.5151 145.918 22.6818C146.016 22.8447 146.143 22.9564 146.298 23.017C146.457 23.0739 146.63 23.1023 146.815 23.1023C146.952 23.1023 147.071 23.0928 147.173 23.0739C147.276 23.0549 147.355 23.0398 147.412 23.0284L147.719 24.4318C147.62 24.4697 147.48 24.5076 147.298 24.5455C147.116 24.5871 146.889 24.6098 146.616 24.6136C146.169 24.6212 145.753 24.5417 145.366 24.375C144.98 24.2083 144.668 23.9508 144.429 23.6023C144.19 23.2538 144.071 22.8163 144.071 22.2898V13.6818ZM151.325 19.3182V24.5H149.626V12.8636H151.303V17.1932H151.41C151.615 16.7235 151.928 16.3504 152.348 16.0739C152.768 15.7973 153.318 15.6591 153.996 15.6591C154.594 15.6591 155.117 15.7822 155.564 16.0284C156.015 16.2746 156.363 16.642 156.609 17.1307C156.859 17.6155 156.984 18.2216 156.984 18.9489V24.5H155.285V19.1534C155.285 18.5133 155.121 18.017 154.791 17.6648C154.462 17.3087 154.003 17.1307 153.416 17.1307C153.015 17.1307 152.655 17.2159 152.337 17.3864C152.022 17.5568 151.774 17.8068 151.592 18.1364C151.414 18.4621 151.325 18.8561 151.325 19.3182ZM163.013 24.6761C162.153 24.6761 161.412 24.4924 160.791 24.125C160.174 23.7538 159.696 23.233 159.359 22.5625C159.026 21.8883 158.859 21.0985 158.859 20.1932C158.859 19.2992 159.026 18.5114 159.359 17.8295C159.696 17.1477 160.166 16.6155 160.768 16.233C161.374 15.8504 162.083 15.6591 162.893 15.6591C163.386 15.6591 163.863 15.7405 164.325 15.9034C164.787 16.0663 165.202 16.322 165.57 16.6705C165.937 17.0189 166.227 17.4716 166.439 18.0284C166.651 18.5814 166.757 19.2538 166.757 20.0455V20.6477H159.82V19.375H165.092C165.092 18.928 165.001 18.5322 164.82 18.1875C164.638 17.839 164.382 17.5644 164.053 17.3636C163.727 17.1629 163.344 17.0625 162.905 17.0625C162.428 17.0625 162.011 17.1799 161.655 17.4148C161.303 17.6458 161.03 17.9489 160.837 18.3239C160.647 18.6951 160.553 19.0985 160.553 19.5341V20.5284C160.553 21.1117 160.655 21.608 160.859 22.017C161.068 22.4261 161.357 22.7386 161.729 22.9545C162.1 23.1667 162.534 23.2727 163.03 23.2727C163.352 23.2727 163.645 23.2273 163.91 23.1364C164.176 23.0417 164.405 22.9015 164.598 22.7159C164.791 22.5303 164.939 22.3011 165.041 22.0284L166.649 22.3182C166.52 22.7917 166.289 23.2064 165.956 23.5625C165.626 23.9148 165.212 24.1894 164.712 24.3864C164.215 24.5795 163.649 24.6761 163.013 24.6761Z" fill="#E8E8E8"/>
<path d="M72.1584 35.6158H69.1399C69.0997 35.3059 69.0172 35.0262 68.8924 34.7766C68.7676 34.5271 68.6026 34.3138 68.3974 34.1367C68.1921 33.9596 67.9486 33.8248 67.6669 33.7322C67.3892 33.6357 67.0813 33.5874 66.7433 33.5874C66.1436 33.5874 65.6264 33.7343 65.1918 34.0281C64.7611 34.3218 64.4291 34.7464 64.1957 35.3018C63.9663 35.8572 63.8516 36.5294 63.8516 37.3182C63.8516 38.1392 63.9683 38.8274 64.2017 39.3828C64.4392 39.9342 64.7712 40.3507 65.1978 40.6325C65.6284 40.9102 66.1375 41.049 66.7251 41.049C67.0552 41.049 67.355 41.0067 67.6246 40.9222C67.8983 40.8377 68.1378 40.715 68.343 40.554C68.5523 40.389 68.7234 40.1897 68.8562 39.9563C68.993 39.7189 69.0876 39.4512 69.1399 39.1534L72.1584 39.1715C72.1061 39.7189 71.9471 40.2582 71.6815 40.7894C71.4199 41.3207 71.0597 41.8056 70.6008 42.2443C70.142 42.679 69.5826 43.0251 68.9226 43.2827C68.2666 43.5402 67.514 43.669 66.6648 43.669C65.5459 43.669 64.5438 43.4235 63.6584 42.9325C62.777 42.4375 62.0807 41.7171 61.5696 40.7713C61.0585 39.8255 60.8029 38.6745 60.8029 37.3182C60.8029 35.9579 61.0625 34.8048 61.5817 33.859C62.1009 32.9132 62.8031 32.1948 63.6886 31.7038C64.574 31.2128 65.566 30.9673 66.6648 30.9673C67.4134 30.9673 68.1056 31.072 68.7415 31.2812C69.3774 31.4865 69.9368 31.7884 70.4197 32.1868C70.9027 32.5812 71.2951 33.0662 71.5969 33.6417C71.8988 34.2172 72.0859 34.8752 72.1584 35.6158ZM76.8204 38.2116V43.5H73.8683V31.1364H76.7238V35.9297H76.8264C77.0357 35.3582 77.3778 34.9115 77.8527 34.5895C78.3316 34.2675 78.9172 34.1065 79.6095 34.1065C80.2614 34.1065 80.8289 34.2514 81.3119 34.5412C81.7948 34.8269 82.1691 35.2314 82.4347 35.7546C82.7044 36.2778 82.8372 36.8896 82.8332 37.5898V43.5H79.8811V38.1694C79.8851 37.6542 79.7564 37.2518 79.4948 36.962C79.2332 36.6722 78.8649 36.5273 78.39 36.5273C78.0801 36.5273 77.8064 36.5958 77.569 36.7326C77.3355 36.8654 77.1524 37.0566 77.0196 37.3061C76.8908 37.5556 76.8244 37.8575 76.8204 38.2116ZM87.2899 43.657C86.6983 43.657 86.1731 43.5584 85.7143 43.3611C85.2595 43.1599 84.8993 42.8581 84.6337 42.4556C84.3721 42.0491 84.2413 41.54 84.2413 40.9283C84.2413 40.4131 84.3318 39.9785 84.513 39.6243C84.6941 39.2701 84.9436 38.9824 85.2615 38.761C85.5795 38.5397 85.9457 38.3726 86.3603 38.2599C86.7748 38.1432 87.2175 38.0647 87.6884 38.0245C88.2156 37.9762 88.6402 37.9259 88.9622 37.8736C89.2841 37.8172 89.5176 37.7388 89.6625 37.6381C89.8114 37.5335 89.8858 37.3866 89.8858 37.1974V37.1673C89.8858 36.8574 89.7792 36.6179 89.5659 36.4489C89.3526 36.2798 89.0648 36.1953 88.7026 36.1953C88.3122 36.1953 87.9983 36.2798 87.7608 36.4489C87.5234 36.6179 87.3724 36.8513 87.3081 37.1491L84.5854 37.0526C84.6659 36.4891 84.8732 35.986 85.2072 35.5433C85.5453 35.0966 86.0081 34.7464 86.5957 34.4929C87.1873 34.2353 87.8977 34.1065 88.7267 34.1065C89.3184 34.1065 89.8637 34.177 90.3627 34.3178C90.8618 34.4547 91.2965 34.6559 91.6667 34.9215C92.037 35.1831 92.3227 35.5051 92.524 35.8874C92.7292 36.2698 92.8318 36.7064 92.8318 37.1974V43.5H90.0549V42.2081H89.9824C89.8174 42.522 89.6061 42.7876 89.3485 43.005C89.095 43.2223 88.7952 43.3853 88.449 43.494C88.1069 43.6026 87.7206 43.657 87.2899 43.657ZM88.2015 41.7251C88.5195 41.7251 88.8052 41.6607 89.0588 41.532C89.3163 41.4032 89.5216 41.2261 89.6745 41.0007C89.8275 40.7713 89.9039 40.5057 89.9039 40.2038V39.3224C89.8194 39.3667 89.7168 39.407 89.596 39.4432C89.4793 39.4794 89.3505 39.5136 89.2097 39.5458C89.0688 39.578 88.9239 39.6062 88.775 39.6303C88.6261 39.6545 88.4832 39.6766 88.3464 39.6967C88.0687 39.741 87.8313 39.8094 87.634 39.902C87.4409 39.9946 87.292 40.1153 87.1873 40.2642C87.0867 40.4091 87.0364 40.5821 87.0364 40.7834C87.0364 41.0892 87.1451 41.3227 87.3624 41.4837C87.5837 41.6446 87.8635 41.7251 88.2015 41.7251ZM97.5889 38.2116V43.5H94.6369V34.2273H97.4441V35.9297H97.5467C97.7519 35.3622 98.1021 34.9175 98.5971 34.5955C99.0921 34.2695 99.6817 34.1065 100.366 34.1065C101.018 34.1065 101.583 34.2534 102.062 34.5472C102.545 34.837 102.92 35.2435 103.185 35.7667C103.455 36.2859 103.588 36.8936 103.584 37.5898V43.5H100.632V38.1694C100.636 37.6542 100.505 37.2518 100.239 36.962C99.9776 36.6722 99.6133 36.5273 99.1465 36.5273C98.8366 36.5273 98.5629 36.5958 98.3255 36.7326C98.092 36.8654 97.9109 37.0566 97.7821 37.3061C97.6574 37.5556 97.593 37.8575 97.5889 38.2116ZM108.363 38.2116V43.5H105.411V34.2273H108.218V35.9297H108.321C108.526 35.3622 108.876 34.9175 109.372 34.5955C109.867 34.2695 110.456 34.1065 111.14 34.1065C111.792 34.1065 112.358 34.2534 112.837 34.5472C113.32 34.837 113.694 35.2435 113.96 35.7667C114.229 36.2859 114.362 36.8936 114.358 37.5898V43.5H111.406V38.1694C111.41 37.6542 111.279 37.2518 111.014 36.962C110.752 36.6722 110.388 36.5273 109.921 36.5273C109.611 36.5273 109.337 36.5958 109.1 36.7326C108.866 36.8654 108.685 37.0566 108.557 37.3061C108.432 37.5556 108.367 37.8575 108.363 38.2116ZM120.52 43.6751C119.55 43.6751 118.713 43.4839 118.009 43.1016C117.309 42.7152 116.769 42.1658 116.391 41.4535C116.017 40.7371 115.83 39.8859 115.83 38.8999C115.83 37.942 116.019 37.1049 116.397 36.3885C116.775 35.6681 117.309 35.1087 117.997 34.7102C118.685 34.3078 119.496 34.1065 120.43 34.1065C121.09 34.1065 121.693 34.2092 122.241 34.4144C122.788 34.6197 123.261 34.9235 123.659 35.326C124.058 35.7285 124.368 36.2255 124.589 36.8171C124.81 37.4047 124.921 38.0788 124.921 38.8395V39.576H116.862V37.8615H122.174C122.17 37.5476 122.096 37.2679 121.951 37.0224C121.806 36.7769 121.607 36.5857 121.353 36.4489C121.104 36.308 120.816 36.2376 120.49 36.2376C120.16 36.2376 119.864 36.312 119.603 36.4609C119.341 36.6058 119.134 36.805 118.981 37.0586C118.828 37.3081 118.747 37.5919 118.739 37.9098V39.6545C118.739 40.0328 118.814 40.3648 118.963 40.6506C119.112 40.9323 119.323 41.1516 119.597 41.3086C119.87 41.4656 120.196 41.544 120.575 41.544C120.836 41.544 121.074 41.5078 121.287 41.4354C121.5 41.3629 121.683 41.2563 121.836 41.1154C121.989 40.9745 122.104 40.8015 122.18 40.5962L124.891 40.6747C124.778 41.2824 124.531 41.8117 124.148 42.2624C123.77 42.7092 123.273 43.0573 122.657 43.3068C122.042 43.5523 121.329 43.6751 120.52 43.6751ZM129.381 31.1364V43.5H126.429V31.1364H129.381Z" fill="white"/>
</g>
<defs>
<filter id="filter0_d_3_26" x="5.28571" y="0.285715" width="55.4286" height="54.4286" filterUnits="userSpaceOnUse" color-interpolation-filters="sRGB">
<feFlood flood-opacity="0" result="BackgroundImageFix"/>
<feColorMatrix in="SourceAlpha" type="matrix" values="0 0 0 0 0 0 0 0 0 0 0 0 0 0 0 0 0 0 127 0" result="hardAlpha"/>
<feOffset/>
<feGaussianBlur stdDeviation="2.85714"/>
<feComposite in2="hardAlpha" operator="out"/>
<feColorMatrix type="matrix" values="0 0 0 0 0 0 0 0 0 0 0 0 0 0 0 0 0 0 0.25 0"/>
<feBlend mode="normal" in2="BackgroundImageFix" result="effect1_dropShadow_3_26"/>
<feBlend mode="normal" in="SourceGraphic" in2="effect1_dropShadow_3_26" result="shape"/>
</filter>
<filter id="filter1_d_3_26" x="54.4" y="3.9" width="119.2" height="48.2" filterUnits="userSpaceOnUse" color-interpolation-filters="sRGB">
<feFlood flood-opacity="0" result="BackgroundImageFix"/>
<feColorMatrix in="SourceAlpha" type="matrix" values="0 0 0 0 0 0 0 0 0 0 0 0 0 0 0 0 0 0 127 0" result="hardAlpha"/>
<feOffset/>
<feGaussianBlur stdDeviation="2.8"/>
<feComposite in2="hardAlpha" operator="out"/>
<feColorMatrix type="matrix" values="0 0 0 0 0 0 0 0 0 0 0 0 0 0 0 0 0 0 0.25 0"/>
<feBlend mode="normal" in2="BackgroundImageFix" result="effect1_dropShadow_3_26"/>
<feBlend mode="normal" in="SourceGraphic" in2="effect1_dropShadow_3_26" result="shape"/>
</filter>
<linearGradient id="paint0_linear_3_26" x1="90" y1="0" x2="90" y2="56" gradientUnits="userSpaceOnUse">
<stop stop-color="#50C45B"/>
<stop offset="1" stop-color="#197929"/>
</linearGradient>
<linearGradient id="paint1_linear_3_26" x1="32.5748" y1="13.977" x2="32.7229" y2="39.5796" gradientUnits="userSpaceOnUse">
<stop stop-color="#57D163"/>
<stop offset="1" stop-color="#23B33A"/>
</linearGradient>
</defs>
</svg>
